<svg xmlns="http://www.w3.org/2000/svg" viewBox="0 0 1920 442.46"><defs><style>.cls-1{fill:#5477f2;}.cls-2,.cls-6{fill:#3354cc;}.cls-3{fill:#4064e3;}.cls-4{fill:#3f63e2;}.cls-5{fill:#c9cef7;}.cls-6{fill-rule:evenodd;}</style></defs><title>资源 2</title><g id="图层_2" data-name="图层 2"><g id="图层_1-2" data-name="图层 1"><rect class="cls-1" width="1920" height="442.46"/><polyline class="cls-2" points="711.26 120.5 830.48 120.5 830.48 1.29"/><polyline class="cls-3" points="575.05 239.72 694.26 239.72 694.26 120.5"/><polyline class="cls-2" points="1414.26 440.72 1533.47 440.72 1533.47 321.5"/><polyline class="cls-4" points="711.26 236.72 830.48 236.72 830.48 117.5"/><polyline class="cls-4" points="592.42 120.07 711.64 120.07 711.64 0.85"/><polygon class="cls-3" points="1420.16 0.77 1414.46 0.77 1290.22 0.77 1089.62 442.26 1213.86 442.26 1219.56 442.26 1343.79 442.26 1544.4 0.77 1420.16 0.77"/><circle class="cls-3" cx="750.23" cy="339.87" r="102.59"/><circle class="cls-3" cx="1593.35" cy="379.18" r="59.92"/><circle class="cls-2" cx="1066.54" cy="130.48" r="106.6"/><path class="cls-2" d="M360,237.26h83.76a60.68,60.68,0,0,1,60.68,60.68V442.26a0,0,0,0,1,0,0H369.59a9.63,9.63,0,0,1-9.63-9.63V237.26A0,0,0,0,1,360,237.26Z"/><polygon class="cls-5" points="380 271.99 380 271.99 380 271.99 380 271.99"/><path class="cls-4" d="M147.43,147.86A147.09,147.09,0,0,1,.34.77H147.43Z"/><path class="cls-4" d="M.34,442V295A147.08,147.08,0,0,1,147.43,147.86h0V295A147.09,147.09,0,0,1,.34,442Z"/><path class="cls-2" d="M73.88,294.44V221.52a73.61,73.61,0,0,1,73.55-73.66h0v72.92a73.61,73.61,0,0,1-73.55,73.66Z"/><path class="cls-2" d="M294,147.35h0A147.08,147.08,0,0,1,146.92.26H294Z"/><path class="cls-2" d="M147.43,368.72A73.54,73.54,0,0,0,221,442.26h0a73.54,73.54,0,0,0,73.54-73.54h0A73.54,73.54,0,0,0,221,295.17H147.43Z"/><path class="cls-3" d="M153.43,333.21a38,38,0,0,0,38,38h0a38,38,0,0,0,38-38h0a38,38,0,0,0-38-38h-38Z"/><path class="cls-3" d="M221.22,180.32a40.83,40.83,0,0,1,40.83,40.83h0A40.83,40.83,0,0,1,221.22,262h0a40.83,40.83,0,0,1-40.83-40.83h0a40.83,40.83,0,0,1,40.83-40.83Z"/><path class="cls-2" d="M1480,1.26h440v440C1677,441.26,1480,244.27,1480,1.26Z"/><path class="cls-3" d="M1669.66,1.26H1920V251C1781.74,251,1669.66,139.18,1669.66,1.26Z"/><path class="cls-6" d="M1099.49,415.77a4.48,4.48,0,1,1,4.48,4.49A4.49,4.49,0,0,1,1099.49,415.77Zm31.32,0a4.47,4.47,0,1,1,4.47,4.49A4.48,4.48,0,0,1,1130.81,415.77Zm31.31,0a4.47,4.47,0,1,1,4.47,4.49A4.48,4.48,0,0,1,1162.12,415.77Zm31.31,0a4.48,4.48,0,1,1,4.47,4.49A4.48,4.48,0,0,1,1193.43,415.77Zm31.31,0a4.48,4.48,0,1,1,4.47,4.49A4.48,4.48,0,0,1,1224.74,415.77Zm31.31,0a4.48,4.48,0,1,1,4.48,4.49A4.49,4.49,0,0,1,1256.05,415.77Zm-156.56-29.55a4.48,4.48,0,1,1,4.48,4.5A4.5,4.5,0,0,1,1099.49,386.22Zm31.32,0a4.47,4.47,0,1,1,4.47,4.5A4.49,4.49,0,0,1,1130.81,386.22Zm31.31,0a4.47,4.47,0,1,1,4.47,4.5A4.49,4.49,0,0,1,1162.12,386.22Zm31.31,0a4.48,4.48,0,1,1,4.47,4.5A4.49,4.49,0,0,1,1193.43,386.22Zm31.31,0a4.48,4.48,0,1,1,4.47,4.5A4.49,4.49,0,0,1,1224.74,386.22Zm31.31,0a4.48,4.48,0,1,1,4.48,4.5A4.5,4.5,0,0,1,1256.05,386.22Zm-156.56-29.54a4.48,4.48,0,1,1,4.48,4.49A4.49,4.49,0,0,1,1099.49,356.68Zm31.32,0a4.47,4.47,0,1,1,4.47,4.49A4.48,4.48,0,0,1,1130.81,356.68Zm31.31,0a4.47,4.47,0,1,1,4.47,4.49A4.48,4.48,0,0,1,1162.12,356.68Zm31.31,0a4.48,4.48,0,1,1,4.47,4.49A4.48,4.48,0,0,1,1193.43,356.68Zm31.31,0a4.48,4.48,0,1,1,4.47,4.49A4.48,4.48,0,0,1,1224.74,356.68Zm31.31,0a4.48,4.48,0,1,1,4.48,4.49A4.49,4.49,0,0,1,1256.05,356.68Zm-156.56-30.83a4.48,4.48,0,1,1,4.48,4.49A4.49,4.49,0,0,1,1099.49,325.85Zm31.32,0a4.47,4.47,0,1,1,4.47,4.49A4.48,4.48,0,0,1,1130.81,325.85Zm31.31,0a4.47,4.47,0,1,1,4.47,4.49A4.48,4.48,0,0,1,1162.12,325.85Zm31.31,0a4.48,4.48,0,1,1,4.47,4.49A4.48,4.48,0,0,1,1193.43,325.85Zm31.31,0a4.48,4.48,0,1,1,4.47,4.49A4.48,4.48,0,0,1,1224.74,325.85Zm31.31,0a4.48,4.48,0,1,1,4.48,4.49A4.49,4.49,0,0,1,1256.05,325.85ZM1099.49,296.3a4.48,4.48,0,1,1,4.48,4.5A4.49,4.49,0,0,1,1099.49,296.3Zm31.32,0a4.47,4.47,0,1,1,4.47,4.5A4.48,4.48,0,0,1,1130.81,296.3Zm31.31,0a4.47,4.47,0,1,1,4.47,4.5A4.48,4.48,0,0,1,1162.12,296.3Zm31.31,0a4.48,4.48,0,1,1,4.47,4.5A4.48,4.48,0,0,1,1193.43,296.3Zm31.31,0a4.48,4.48,0,1,1,4.47,4.5A4.48,4.48,0,0,1,1224.74,296.3Zm31.31,0a4.48,4.48,0,1,1,4.48,4.5A4.49,4.49,0,0,1,1256.05,296.3Zm-156.56-29.54a4.48,4.48,0,1,1,4.48,4.49A4.49,4.49,0,0,1,1099.49,266.76Zm31.32,0a4.47,4.47,0,1,1,4.47,4.49A4.48,4.48,0,0,1,1130.81,266.76Zm31.31,0a4.47,4.47,0,1,1,4.47,4.49A4.48,4.48,0,0,1,1162.12,266.76Zm31.31,0a4.48,4.48,0,1,1,4.47,4.49A4.48,4.48,0,0,1,1193.43,266.76Zm31.31,0a4.48,4.48,0,1,1,4.47,4.49A4.48,4.48,0,0,1,1224.74,266.76Zm31.31,0a4.48,4.48,0,1,1,4.48,4.49A4.49,4.49,0,0,1,1256.05,266.76Zm-345,149a4.48,4.48,0,1,1,4.47,4.49A4.48,4.48,0,0,1,911,415.77Zm31.31,0a4.48,4.48,0,1,1,4.48,4.49A4.48,4.48,0,0,1,942.31,415.77Zm31.31,0a4.48,4.48,0,1,1,4.48,4.49A4.49,4.49,0,0,1,973.62,415.77Zm31.32,0a4.47,4.47,0,1,1,4.47,4.49A4.48,4.48,0,0,1,1004.94,415.77Zm31.31,0a4.47,4.47,0,1,1,4.47,4.49A4.48,4.48,0,0,1,1036.25,415.77Zm31.31,0a4.48,4.48,0,1,1,4.47,4.49A4.48,4.48,0,0,1,1067.56,415.77ZM911,386.22a4.48,4.48,0,1,1,4.47,4.5A4.49,4.49,0,0,1,911,386.22Zm31.31,0a4.48,4.48,0,1,1,4.48,4.5A4.49,4.49,0,0,1,942.31,386.22Zm31.31,0a4.48,4.48,0,1,1,4.48,4.5A4.5,4.5,0,0,1,973.62,386.22Zm31.32,0a4.47,4.47,0,1,1,4.47,4.5A4.49,4.49,0,0,1,1004.94,386.22Zm31.31,0a4.47,4.47,0,1,1,4.47,4.5A4.49,4.49,0,0,1,1036.25,386.22Zm31.31,0a4.48,4.48,0,1,1,4.47,4.5A4.49,4.49,0,0,1,1067.56,386.22ZM911,356.68a4.48,4.48,0,1,1,4.47,4.49A4.48,4.48,0,0,1,911,356.68Zm31.31,0a4.48,4.48,0,1,1,4.48,4.49A4.48,4.48,0,0,1,942.31,356.68Zm31.31,0a4.48,4.48,0,1,1,4.48,4.49A4.49,4.49,0,0,1,973.62,356.68Zm31.32,0a4.47,4.47,0,1,1,4.47,4.49A4.48,4.48,0,0,1,1004.94,356.68Zm31.31,0a4.47,4.47,0,1,1,4.47,4.49A4.48,4.48,0,0,1,1036.25,356.68Zm31.31,0a4.48,4.48,0,1,1,4.47,4.49A4.48,4.48,0,0,1,1067.56,356.68ZM911,325.85a4.48,4.48,0,1,1,4.47,4.49A4.48,4.48,0,0,1,911,325.85Zm31.31,0a4.48,4.48,0,1,1,4.48,4.49A4.48,4.48,0,0,1,942.31,325.85Zm31.31,0a4.48,4.48,0,1,1,4.48,4.49A4.49,4.49,0,0,1,973.62,325.85Zm31.32,0a4.47,4.47,0,1,1,4.47,4.49A4.48,4.48,0,0,1,1004.94,325.85Zm31.31,0a4.47,4.47,0,1,1,4.47,4.49A4.48,4.48,0,0,1,1036.25,325.85Zm31.31,0a4.48,4.48,0,1,1,4.47,4.49A4.48,4.48,0,0,1,1067.56,325.85ZM911,296.3a4.48,4.48,0,1,1,4.47,4.5A4.48,4.48,0,0,1,911,296.3Zm31.31,0a4.48,4.48,0,1,1,4.48,4.5A4.48,4.48,0,0,1,942.31,296.3Zm31.31,0a4.48,4.48,0,1,1,4.48,4.5A4.49,4.49,0,0,1,973.62,296.3Zm31.32,0a4.47,4.47,0,1,1,4.47,4.5A4.48,4.48,0,0,1,1004.94,296.3Zm31.31,0a4.47,4.47,0,1,1,4.47,4.5A4.48,4.48,0,0,1,1036.25,296.3Zm31.31,0a4.48,4.48,0,1,1,4.47,4.5A4.48,4.48,0,0,1,1067.56,296.3ZM911,266.76a4.48,4.48,0,1,1,4.47,4.49A4.48,4.48,0,0,1,911,266.76Zm31.31,0a4.48,4.48,0,1,1,4.48,4.49A4.48,4.48,0,0,1,942.31,266.76Zm31.31,0a4.48,4.48,0,1,1,4.48,4.49A4.49,4.49,0,0,1,973.62,266.76Zm31.32,0a4.47,4.47,0,1,1,4.47,4.49A4.48,4.48,0,0,1,1004.94,266.76Zm31.31,0a4.47,4.47,0,1,1,4.47,4.49A4.48,4.48,0,0,1,1036.25,266.76Zm31.31,0a4.48,4.48,0,1,1,4.47,4.49A4.48,4.48,0,0,1,1067.56,266.76Z"/><path class="cls-6" d="M502.49,98.77a4.48,4.48,0,1,1,4.48,4.49A4.49,4.49,0,0,1,502.49,98.77Zm31.32,0a4.47,4.47,0,1,1,4.47,4.49A4.48,4.48,0,0,1,533.81,98.77Zm31.31,0a4.47,4.47,0,1,1,4.47,4.49A4.48,4.48,0,0,1,565.12,98.77Zm31.31,0a4.48,4.48,0,1,1,4.47,4.49A4.48,4.48,0,0,1,596.43,98.77Zm31.31,0a4.48,4.48,0,1,1,4.47,4.49A4.48,4.48,0,0,1,627.74,98.77Zm31.31,0a4.48,4.48,0,1,1,4.48,4.49A4.49,4.49,0,0,1,659.05,98.77ZM502.49,69.22a4.48,4.48,0,1,1,4.48,4.5A4.5,4.5,0,0,1,502.49,69.22Zm31.32,0a4.47,4.47,0,1,1,4.47,4.5A4.49,4.49,0,0,1,533.81,69.22Zm31.31,0a4.47,4.47,0,1,1,4.47,4.5A4.49,4.49,0,0,1,565.12,69.22Zm31.31,0a4.48,4.48,0,1,1,4.47,4.5A4.49,4.49,0,0,1,596.43,69.22Zm31.31,0a4.48,4.48,0,1,1,4.47,4.5A4.49,4.49,0,0,1,627.74,69.22Zm31.31,0a4.48,4.48,0,1,1,4.48,4.5A4.5,4.5,0,0,1,659.05,69.22ZM502.49,39.68A4.48,4.48,0,1,1,507,44.17,4.49,4.49,0,0,1,502.49,39.68Zm31.32,0a4.47,4.47,0,1,1,4.47,4.49A4.48,4.48,0,0,1,533.81,39.68Zm31.31,0a4.47,4.47,0,1,1,4.47,4.49A4.48,4.48,0,0,1,565.12,39.68Zm31.31,0a4.48,4.48,0,1,1,4.47,4.49A4.48,4.48,0,0,1,596.43,39.68Zm31.31,0a4.48,4.48,0,1,1,4.47,4.49A4.48,4.48,0,0,1,627.74,39.68Zm31.31,0a4.48,4.48,0,1,1,4.48,4.49A4.49,4.49,0,0,1,659.05,39.68ZM502.49,8.85A4.48,4.48,0,1,1,507,13.34,4.49,4.49,0,0,1,502.49,8.85Zm31.32,0a4.47,4.47,0,1,1,4.47,4.49A4.48,4.48,0,0,1,533.81,8.85Zm31.31,0a4.47,4.47,0,1,1,4.47,4.49A4.48,4.48,0,0,1,565.12,8.85Zm31.31,0a4.48,4.48,0,1,1,4.47,4.49A4.48,4.48,0,0,1,596.43,8.85Zm31.31,0a4.48,4.48,0,1,1,4.47,4.49A4.48,4.48,0,0,1,627.74,8.85Zm31.31,0a4.48,4.48,0,1,1,4.48,4.49A4.49,4.49,0,0,1,659.05,8.85ZM314,98.77a4.48,4.48,0,1,1,4.47,4.49A4.48,4.48,0,0,1,314,98.77Zm31.31,0a4.48,4.48,0,1,1,4.48,4.49A4.48,4.48,0,0,1,345.31,98.77Zm31.31,0a4.48,4.48,0,1,1,4.48,4.49A4.49,4.49,0,0,1,376.62,98.77Zm31.32,0a4.47,4.47,0,1,1,4.47,4.49A4.48,4.48,0,0,1,407.94,98.77Zm31.31,0a4.47,4.47,0,1,1,4.47,4.49A4.48,4.48,0,0,1,439.25,98.77Zm31.31,0a4.48,4.48,0,1,1,4.47,4.49A4.48,4.48,0,0,1,470.56,98.77ZM314,69.22a4.48,4.48,0,1,1,4.47,4.5A4.49,4.49,0,0,1,314,69.22Zm31.31,0a4.48,4.48,0,1,1,4.48,4.5A4.49,4.49,0,0,1,345.31,69.22Zm31.31,0a4.48,4.48,0,1,1,4.48,4.5A4.5,4.5,0,0,1,376.62,69.22Zm31.32,0a4.47,4.47,0,1,1,4.47,4.5A4.49,4.49,0,0,1,407.94,69.22Zm31.31,0a4.47,4.47,0,1,1,4.47,4.5A4.49,4.49,0,0,1,439.25,69.22Zm31.31,0a4.48,4.48,0,1,1,4.47,4.5A4.49,4.49,0,0,1,470.56,69.22ZM314,39.68a4.48,4.48,0,1,1,4.47,4.49A4.48,4.48,0,0,1,314,39.68Zm31.31,0a4.48,4.48,0,1,1,4.48,4.49A4.48,4.48,0,0,1,345.31,39.68Zm31.31,0a4.48,4.48,0,1,1,4.48,4.49A4.49,4.49,0,0,1,376.62,39.68Zm31.32,0a4.47,4.47,0,1,1,4.47,4.49A4.48,4.48,0,0,1,407.94,39.68Zm31.31,0a4.47,4.47,0,1,1,4.47,4.49A4.48,4.48,0,0,1,439.25,39.68Zm31.31,0A4.48,4.48,0,1,1,475,44.17,4.48,4.48,0,0,1,470.56,39.68ZM314,8.85a4.48,4.48,0,1,1,4.47,4.49A4.48,4.48,0,0,1,314,8.85Zm31.31,0a4.48,4.48,0,1,1,4.48,4.49A4.48,4.48,0,0,1,345.31,8.85Zm31.31,0a4.48,4.48,0,1,1,4.48,4.49A4.49,4.49,0,0,1,376.62,8.85Zm31.32,0a4.47,4.47,0,1,1,4.47,4.49A4.48,4.48,0,0,1,407.94,8.85Zm31.31,0a4.47,4.47,0,1,1,4.47,4.49A4.48,4.48,0,0,1,439.25,8.85Zm31.31,0A4.48,4.48,0,1,1,475,13.34,4.48,4.48,0,0,1,470.56,8.85Z"/></g></g></svg>